<?xml version="1.0" encoding="utf-8" standalone="no"?>
<!DOCTYPE svg PUBLIC "-//W3C//DTD SVG 1.1//EN"
  "http://www.w3.org/Graphics/SVG/1.1/DTD/svg11.dtd">
<svg xmlns:xlink="http://www.w3.org/1999/xlink" width="864pt" height="288pt" viewBox="0 0 864 288" xmlns="http://www.w3.org/2000/svg" version="1.1">
 <metadata>
  <rdf:RDF xmlns:dc="http://purl.org/dc/elements/1.1/" xmlns:cc="http://creativecommons.org/ns#" xmlns:rdf="http://www.w3.org/1999/02/22-rdf-syntax-ns#">
   <cc:Work>
    <dc:type rdf:resource="http://purl.org/dc/dcmitype/StillImage"/>
    <dc:date>2022-02-11T10:08:12.799808</dc:date>
    <dc:format>image/svg+xml</dc:format>
    <dc:creator>
     <cc:Agent>
      <dc:title>Matplotlib v3.5.1, https://matplotlib.org/</dc:title>
     </cc:Agent>
    </dc:creator>
   </cc:Work>
  </rdf:RDF>
 </metadata>
 <defs>
  <style type="text/css">*{stroke-linejoin: round; stroke-linecap: butt}</style>
 </defs>
 <g id="figure_1">
  <g id="patch_1">
   <path d="M 0 288 
L 864 288 
L 864 0 
L 0 0 
z
" style="fill: #fafafa"/>
  </g>
  <g id="axes_1">
   <g id="patch_2">
    <path d="M 108 252 
L 777.6 252 
L 777.6 34.56 
L 108 34.56 
z
" style="fill: #fafafa"/>
   </g>
   <g id="matplotlib.axis_1">
    <g id="xtick_1">
     <g id="text_1">
      <!-- 10 -->
      <g style="fill: #262626" transform="translate(150.991917 269.858281)scale(0.11 -0.11)">
       <defs>
        <path id="DejaVuSans-31" d="M 794 531 
L 1825 531 
L 1825 4091 
L 703 3866 
L 703 4441 
L 1819 4666 
L 2450 4666 
L 2450 531 
L 3481 531 
L 3481 0 
L 794 0 
L 794 531 
z
" transform="scale(0.015625)"/>
        <path id="DejaVuSans-30" d="M 2034 4250 
Q 1547 4250 1301 3770 
Q 1056 3291 1056 2328 
Q 1056 1369 1301 889 
Q 1547 409 2034 409 
Q 2525 409 2770 889 
Q 3016 1369 3016 2328 
Q 3016 3291 2770 3770 
Q 2525 4250 2034 4250 
z
M 2034 4750 
Q 2819 4750 3233 4129 
Q 3647 3509 3647 2328 
Q 3647 1150 3233 529 
Q 2819 -91 2034 -91 
Q 1250 -91 836 529 
Q 422 1150 422 2328 
Q 422 3509 836 4129 
Q 1250 4750 2034 4750 
z
" transform="scale(0.015625)"/>
       </defs>
       <use xlink:href="#DejaVuSans-31"/>
       <use xlink:href="#DejaVuSans-30" x="63.623047"/>
      </g>
     </g>
    </g>
    <g id="xtick_2">
     <g id="text_2">
      <!-- 20 -->
      <g style="fill: #262626" transform="translate(225.941741 269.858281)scale(0.11 -0.11)">
       <defs>
        <path id="DejaVuSans-32" d="M 1228 531 
L 3431 531 
L 3431 0 
L 469 0 
L 469 531 
Q 828 903 1448 1529 
Q 2069 2156 2228 2338 
Q 2531 2678 2651 2914 
Q 2772 3150 2772 3378 
Q 2772 3750 2511 3984 
Q 2250 4219 1831 4219 
Q 1534 4219 1204 4116 
Q 875 4013 500 3803 
L 500 4441 
Q 881 4594 1212 4672 
Q 1544 4750 1819 4750 
Q 2544 4750 2975 4387 
Q 3406 4025 3406 3419 
Q 3406 3131 3298 2873 
Q 3191 2616 2906 2266 
Q 2828 2175 2409 1742 
Q 1991 1309 1228 531 
z
" transform="scale(0.015625)"/>
       </defs>
       <use xlink:href="#DejaVuSans-32"/>
       <use xlink:href="#DejaVuSans-30" x="63.623047"/>
      </g>
     </g>
    </g>
    <g id="xtick_3">
     <g id="text_3">
      <!-- 30 -->
      <g style="fill: #262626" transform="translate(300.891566 269.858281)scale(0.11 -0.11)">
       <defs>
        <path id="DejaVuSans-33" d="M 2597 2516 
Q 3050 2419 3304 2112 
Q 3559 1806 3559 1356 
Q 3559 666 3084 287 
Q 2609 -91 1734 -91 
Q 1441 -91 1130 -33 
Q 819 25 488 141 
L 488 750 
Q 750 597 1062 519 
Q 1375 441 1716 441 
Q 2309 441 2620 675 
Q 2931 909 2931 1356 
Q 2931 1769 2642 2001 
Q 2353 2234 1838 2234 
L 1294 2234 
L 1294 2753 
L 1863 2753 
Q 2328 2753 2575 2939 
Q 2822 3125 2822 3475 
Q 2822 3834 2567 4026 
Q 2313 4219 1838 4219 
Q 1578 4219 1281 4162 
Q 984 4106 628 3988 
L 628 4550 
Q 988 4650 1302 4700 
Q 1616 4750 1894 4750 
Q 2613 4750 3031 4423 
Q 3450 4097 3450 3541 
Q 3450 3153 3228 2886 
Q 3006 2619 2597 2516 
z
" transform="scale(0.015625)"/>
       </defs>
       <use xlink:href="#DejaVuSans-33"/>
       <use xlink:href="#DejaVuSans-30" x="63.623047"/>
      </g>
     </g>
    </g>
    <g id="xtick_4">
     <g id="text_4">
      <!-- 40 -->
      <g style="fill: #262626" transform="translate(375.84139 269.858281)scale(0.11 -0.11)">
       <defs>
        <path id="DejaVuSans-34" d="M 2419 4116 
L 825 1625 
L 2419 1625 
L 2419 4116 
z
M 2253 4666 
L 3047 4666 
L 3047 1625 
L 3713 1625 
L 3713 1100 
L 3047 1100 
L 3047 0 
L 2419 0 
L 2419 1100 
L 313 1100 
L 313 1709 
L 2253 4666 
z
" transform="scale(0.015625)"/>
       </defs>
       <use xlink:href="#DejaVuSans-34"/>
       <use xlink:href="#DejaVuSans-30" x="63.623047"/>
      </g>
     </g>
    </g>
    <g id="xtick_5">
     <g id="text_5">
      <!-- 50 -->
      <g style="fill: #262626" transform="translate(450.791215 269.858281)scale(0.11 -0.11)">
       <defs>
        <path id="DejaVuSans-35" d="M 691 4666 
L 3169 4666 
L 3169 4134 
L 1269 4134 
L 1269 2991 
Q 1406 3038 1543 3061 
Q 1681 3084 1819 3084 
Q 2600 3084 3056 2656 
Q 3513 2228 3513 1497 
Q 3513 744 3044 326 
Q 2575 -91 1722 -91 
Q 1428 -91 1123 -41 
Q 819 9 494 109 
L 494 744 
Q 775 591 1075 516 
Q 1375 441 1709 441 
Q 2250 441 2565 725 
Q 2881 1009 2881 1497 
Q 2881 1984 2565 2268 
Q 2250 2553 1709 2553 
Q 1456 2553 1204 2497 
Q 953 2441 691 2322 
L 691 4666 
z
" transform="scale(0.015625)"/>
       </defs>
       <use xlink:href="#DejaVuSans-35"/>
       <use xlink:href="#DejaVuSans-30" x="63.623047"/>
      </g>
     </g>
    </g>
    <g id="xtick_6">
     <g id="text_6">
      <!-- 60 -->
      <g style="fill: #262626" transform="translate(525.741039 269.858281)scale(0.11 -0.11)">
       <defs>
        <path id="DejaVuSans-36" d="M 2113 2584 
Q 1688 2584 1439 2293 
Q 1191 2003 1191 1497 
Q 1191 994 1439 701 
Q 1688 409 2113 409 
Q 2538 409 2786 701 
Q 3034 994 3034 1497 
Q 3034 2003 2786 2293 
Q 2538 2584 2113 2584 
z
M 3366 4563 
L 3366 3988 
Q 3128 4100 2886 4159 
Q 2644 4219 2406 4219 
Q 1781 4219 1451 3797 
Q 1122 3375 1075 2522 
Q 1259 2794 1537 2939 
Q 1816 3084 2150 3084 
Q 2853 3084 3261 2657 
Q 3669 2231 3669 1497 
Q 3669 778 3244 343 
Q 2819 -91 2113 -91 
Q 1303 -91 875 529 
Q 447 1150 447 2328 
Q 447 3434 972 4092 
Q 1497 4750 2381 4750 
Q 2619 4750 2861 4703 
Q 3103 4656 3366 4563 
z
" transform="scale(0.015625)"/>
       </defs>
       <use xlink:href="#DejaVuSans-36"/>
       <use xlink:href="#DejaVuSans-30" x="63.623047"/>
      </g>
     </g>
    </g>
    <g id="xtick_7">
     <g id="text_7">
      <!-- 70 -->
      <g style="fill: #262626" transform="translate(600.690864 269.858281)scale(0.11 -0.11)">
       <defs>
        <path id="DejaVuSans-37" d="M 525 4666 
L 3525 4666 
L 3525 4397 
L 1831 0 
L 1172 0 
L 2766 4134 
L 525 4134 
L 525 4666 
z
" transform="scale(0.015625)"/>
       </defs>
       <use xlink:href="#DejaVuSans-37"/>
       <use xlink:href="#DejaVuSans-30" x="63.623047"/>
      </g>
     </g>
    </g>
    <g id="xtick_8">
     <g id="text_8">
      <!-- 80 -->
      <g style="fill: #262626" transform="translate(675.640688 269.858281)scale(0.11 -0.11)">
       <defs>
        <path id="DejaVuSans-38" d="M 2034 2216 
Q 1584 2216 1326 1975 
Q 1069 1734 1069 1313 
Q 1069 891 1326 650 
Q 1584 409 2034 409 
Q 2484 409 2743 651 
Q 3003 894 3003 1313 
Q 3003 1734 2745 1975 
Q 2488 2216 2034 2216 
z
M 1403 2484 
Q 997 2584 770 2862 
Q 544 3141 544 3541 
Q 544 4100 942 4425 
Q 1341 4750 2034 4750 
Q 2731 4750 3128 4425 
Q 3525 4100 3525 3541 
Q 3525 3141 3298 2862 
Q 3072 2584 2669 2484 
Q 3125 2378 3379 2068 
Q 3634 1759 3634 1313 
Q 3634 634 3220 271 
Q 2806 -91 2034 -91 
Q 1263 -91 848 271 
Q 434 634 434 1313 
Q 434 1759 690 2068 
Q 947 2378 1403 2484 
z
M 1172 3481 
Q 1172 3119 1398 2916 
Q 1625 2713 2034 2713 
Q 2441 2713 2670 2916 
Q 2900 3119 2900 3481 
Q 2900 3844 2670 4047 
Q 2441 4250 2034 4250 
Q 1625 4250 1398 4047 
Q 1172 3844 1172 3481 
z
" transform="scale(0.015625)"/>
       </defs>
       <use xlink:href="#DejaVuSans-38"/>
       <use xlink:href="#DejaVuSans-30" x="63.623047"/>
      </g>
     </g>
    </g>
    <g id="xtick_9">
     <g id="text_9">
      <!-- 90 -->
      <g style="fill: #262626" transform="translate(750.590513 269.858281)scale(0.11 -0.11)">
       <defs>
        <path id="DejaVuSans-39" d="M 703 97 
L 703 672 
Q 941 559 1184 500 
Q 1428 441 1663 441 
Q 2288 441 2617 861 
Q 2947 1281 2994 2138 
Q 2813 1869 2534 1725 
Q 2256 1581 1919 1581 
Q 1219 1581 811 2004 
Q 403 2428 403 3163 
Q 403 3881 828 4315 
Q 1253 4750 1959 4750 
Q 2769 4750 3195 4129 
Q 3622 3509 3622 2328 
Q 3622 1225 3098 567 
Q 2575 -91 1691 -91 
Q 1453 -91 1209 -44 
Q 966 3 703 97 
z
M 1959 2075 
Q 2384 2075 2632 2365 
Q 2881 2656 2881 3163 
Q 2881 3666 2632 3958 
Q 2384 4250 1959 4250 
Q 1534 4250 1286 3958 
Q 1038 3666 1038 3163 
Q 1038 2656 1286 2365 
Q 1534 2075 1959 2075 
z
" transform="scale(0.015625)"/>
       </defs>
       <use xlink:href="#DejaVuSans-39"/>
       <use xlink:href="#DejaVuSans-30" x="63.623047"/>
      </g>
     </g>
    </g>
   </g>
   <g id="matplotlib.axis_2"/>
   <g id="PolyCollection_1">
    <defs>
     <path id="md707d518a5" d="M 150.264956 -36.023365 
L 150.264956 -36 
L 152.979028 -36 
L 155.693099 -36 
L 158.40717 -36 
L 161.121242 -36 
L 163.835313 -36 
L 166.549384 -36 
L 169.263456 -36 
L 171.977527 -36 
L 174.691598 -36 
L 177.40567 -36 
L 180.119741 -36 
L 182.833812 -36 
L 185.547884 -36 
L 188.261955 -36 
L 190.976026 -36 
L 193.690097 -36 
L 196.404169 -36 
L 199.11824 -36 
L 201.832311 -36 
L 204.546383 -36 
L 207.260454 -36 
L 209.974525 -36 
L 212.688597 -36 
L 215.402668 -36 
L 218.116739 -36 
L 220.830811 -36 
L 223.544882 -36 
L 226.258953 -36 
L 228.973025 -36 
L 231.687096 -36 
L 234.401167 -36 
L 237.115239 -36 
L 239.82931 -36 
L 242.543381 -36 
L 245.257453 -36 
L 247.971524 -36 
L 250.685595 -36 
L 253.399667 -36 
L 256.113738 -36 
L 258.827809 -36 
L 261.54188 -36 
L 264.255952 -36 
L 266.970023 -36 
L 269.684094 -36 
L 272.398166 -36 
L 275.112237 -36 
L 277.826308 -36 
L 280.54038 -36 
L 283.254451 -36 
L 285.968522 -36 
L 288.682594 -36 
L 291.396665 -36 
L 294.110736 -36 
L 296.824808 -36 
L 299.538879 -36 
L 302.25295 -36 
L 304.967022 -36 
L 307.681093 -36 
L 310.395164 -36 
L 313.109236 -36 
L 315.823307 -36 
L 318.537378 -36 
L 321.25145 -36 
L 323.965521 -36 
L 326.679592 -36 
L 329.393663 -36 
L 332.107735 -36 
L 334.821806 -36 
L 337.535877 -36 
L 340.249949 -36 
L 342.96402 -36 
L 345.678091 -36 
L 348.392163 -36 
L 351.106234 -36 
L 353.820305 -36 
L 356.534377 -36 
L 359.248448 -36 
L 361.962519 -36 
L 364.676591 -36 
L 367.390662 -36 
L 370.104733 -36 
L 372.818805 -36 
L 375.532876 -36 
L 378.246947 -36 
L 380.961019 -36 
L 383.67509 -36 
L 386.389161 -36 
L 389.103232 -36 
L 391.817304 -36 
L 394.531375 -36 
L 397.245446 -36 
L 399.959518 -36 
L 402.673589 -36 
L 405.38766 -36 
L 408.101732 -36 
L 410.815803 -36 
L 413.529874 -36 
L 416.243946 -36 
L 418.958017 -36 
L 421.672088 -36 
L 424.38616 -36 
L 427.100231 -36 
L 429.814302 -36 
L 432.528374 -36 
L 435.242445 -36 
L 437.956516 -36 
L 440.670588 -36 
L 443.384659 -36 
L 446.09873 -36 
L 448.812802 -36 
L 451.526873 -36 
L 454.240944 -36 
L 456.955015 -36 
L 459.669087 -36 
L 462.383158 -36 
L 465.097229 -36 
L 467.811301 -36 
L 470.525372 -36 
L 473.239443 -36 
L 475.953515 -36 
L 478.667586 -36 
L 481.381657 -36 
L 484.095729 -36 
L 486.8098 -36 
L 489.523871 -36 
L 492.237943 -36 
L 494.952014 -36 
L 497.666085 -36 
L 500.380157 -36 
L 503.094228 -36 
L 505.808299 -36 
L 508.522371 -36 
L 511.236442 -36 
L 513.950513 -36 
L 516.664584 -36 
L 519.378656 -36 
L 522.092727 -36 
L 524.806798 -36 
L 527.52087 -36 
L 530.234941 -36 
L 532.949012 -36 
L 535.663084 -36 
L 538.377155 -36 
L 541.091226 -36 
L 543.805298 -36 
L 546.519369 -36 
L 549.23344 -36 
L 551.947512 -36 
L 554.661583 -36 
L 557.375654 -36 
L 560.089726 -36 
L 562.803797 -36 
L 565.517868 -36 
L 568.23194 -36 
L 570.946011 -36 
L 573.660082 -36 
L 576.374154 -36 
L 579.088225 -36 
L 581.802296 -36 
L 584.516367 -36 
L 587.230439 -36 
L 589.94451 -36 
L 592.658581 -36 
L 595.372653 -36 
L 598.086724 -36 
L 600.800795 -36 
L 603.514867 -36 
L 606.228938 -36 
L 608.943009 -36 
L 611.657081 -36 
L 614.371152 -36 
L 617.085223 -36 
L 619.799295 -36 
L 622.513366 -36 
L 625.227437 -36 
L 627.941509 -36 
L 630.65558 -36 
L 633.369651 -36 
L 636.083723 -36 
L 638.797794 -36 
L 641.511865 -36 
L 644.225937 -36 
L 646.940008 -36 
L 649.654079 -36 
L 652.36815 -36 
L 655.082222 -36 
L 657.796293 -36 
L 660.510364 -36 
L 663.224436 -36 
L 665.938507 -36 
L 668.652578 -36 
L 671.36665 -36 
L 674.080721 -36 
L 676.794792 -36 
L 679.508864 -36 
L 682.222935 -36 
L 684.937006 -36 
L 687.651078 -36 
L 690.365149 -36 
L 690.365149 -36.007594 
L 690.365149 -36.007594 
L 687.651078 -36.013173 
L 684.937006 -36.022161 
L 682.222935 -36.03616 
L 679.508864 -36.057234 
L 676.794792 -36.087886 
L 674.080721 -36.130948 
L 671.36665 -36.189349 
L 668.652578 -36.265777 
L 665.938507 -36.362233 
L 663.224436 -36.479551 
L 660.510364 -36.616979 
L 657.796293 -36.771912 
L 655.082222 -36.939903 
L 652.36815 -37.114999 
L 649.654079 -37.290409 
L 646.940008 -37.45941 
L 644.225937 -37.61632 
L 641.511865 -37.757334 
L 638.797794 -37.881025 
L 636.083723 -37.988393 
L 633.369651 -38.082443 
L 630.65558 -38.167428 
L 627.941509 -38.247955 
L 625.227437 -38.328206 
L 622.513366 -38.41145 
L 619.799295 -38.499934 
L 617.085223 -38.595084 
L 614.371152 -38.697843 
L 611.657081 -38.808966 
L 608.943009 -38.929071 
L 606.228938 -39.058407 
L 603.514867 -39.19639 
L 600.800795 -39.341059 
L 598.086724 -39.48868 
L 595.372653 -39.633655 
L 592.658581 -39.768848 
L 589.94451 -39.886328 
L 587.230439 -39.978415 
L 584.516367 -40.038877 
L 581.802296 -40.064077 
L 579.088225 -40.053898 
L 576.374154 -40.01229 
L 573.660082 -39.947325 
L 570.946011 -39.87072 
L 568.23194 -39.796809 
L 565.517868 -39.741037 
L 562.803797 -39.718131 
L 560.089726 -39.740159 
L 557.375654 -39.814757 
L 554.661583 -39.943841 
L 551.947512 -40.123051 
L 549.23344 -40.342125 
L 546.519369 -40.586203 
L 543.805298 -40.837938 
L 541.091226 -41.08008 
L 538.377155 -41.298111 
L 535.663084 -41.482461 
L 532.949012 -41.629909 
L 530.234941 -41.743929 
L 527.52087 -41.833973 
L 524.806798 -41.913895 
L 522.092727 -41.9999 
L 519.378656 -42.10846 
L 516.664584 -42.254577 
L 513.950513 -42.450633 
L 511.236442 -42.705837 
L 508.522371 -43.026141 
L 505.808299 -43.414352 
L 503.094228 -43.870229 
L 500.380157 -44.39041 
L 497.666085 -44.968234 
L 494.952014 -45.593625 
L 492.237943 -46.253342 
L 489.523871 -46.931842 
L 486.8098 -47.612908 
L 484.095729 -48.281971 
L 481.381657 -48.928819 
L 478.667586 -49.550218 
L 475.953515 -50.151868 
L 473.239443 -50.749179 
L 470.525372 -51.366573 
L 467.811301 -52.035297 
L 465.097229 -52.790059 
L 462.383158 -53.66503 
L 459.669087 -54.689873 
L 456.955015 -55.886375 
L 454.240944 -57.266112 
L 451.526873 -58.829302 
L 448.812802 -60.564842 
L 446.09873 -62.451384 
L 443.384659 -64.459286 
L 440.670588 -66.553315 
L 437.956516 -68.695951 
L 435.242445 -70.851106 
L 432.528374 -72.987945 
L 429.814302 -75.084341 
L 427.100231 -77.129444 
L 424.38616 -79.12488 
L 421.672088 -81.084288 
L 418.958017 -83.031229 
L 416.243946 -84.995832 
L 413.529874 -87.010782 
L 410.815803 -89.107426 
L 408.101732 -91.312679 
L 405.38766 -93.647242 
L 402.673589 -96.125354 
L 399.959518 -98.755973 
L 397.245446 -101.545007 
L 394.531375 -104.498059 
L 391.817304 -107.623026 
L 389.103232 -110.93198 
L 386.389161 -114.441906 
L 383.67509 -118.17409 
L 380.961019 -122.152212 
L 378.246947 -126.399437 
L 375.532876 -130.934947 
L 372.818805 -135.770402 
L 370.104733 -140.906851 
L 367.390662 -146.332447 
L 364.676591 -152.021264 
L 361.962519 -157.93332 
L 359.248448 -164.015816 
L 356.534377 -170.205427 
L 353.820305 -176.431414 
L 351.106234 -182.619207 
L 348.392163 -188.694117 
L 345.678091 -194.584873 
L 342.96402 -200.226744 
L 340.249949 -205.564162 
L 337.535877 -210.552779 
L 334.821806 -215.160943 
L 332.107735 -219.370478 
L 329.393663 -223.176607 
L 326.679592 -226.586799 
L 323.965521 -229.618406 
L 321.25145 -232.295178 
L 318.537378 -234.643016 
L 315.823307 -236.685633 
L 313.109236 -238.440957 
L 310.395164 -239.919049 
L 307.681093 -241.122033 
L 304.967022 -242.046002 
L 302.25295 -242.684358 
L 299.538879 -243.031511 
L 296.824808 -243.085714 
L 294.110736 -242.84993 
L 291.396665 -242.330141 
L 288.682594 -241.531242 
L 285.968522 -240.451457 
L 283.254451 -239.076752 
L 280.54038 -237.376972 
L 277.826308 -235.305094 
L 275.112237 -232.800358 
L 272.398166 -229.79511 
L 269.684094 -226.224285 
L 266.970023 -222.035817 
L 264.255952 -217.200012 
L 261.54188 -211.716106 
L 258.827809 -205.614785 
L 256.113738 -198.956261 
L 253.399667 -191.824311 
L 250.685595 -184.317425 
L 247.971524 -176.538693 
L 245.257453 -168.586187 
L 242.543381 -160.54545 
L 239.82931 -152.485173 
L 237.115239 -144.456515 
L 234.401167 -136.495747 
L 231.687096 -128.629277 
L 228.973025 -120.879748 
L 226.258953 -113.27176 
L 223.544882 -105.836063 
L 220.830811 -98.611484 
L 218.116739 -91.644433 
L 215.402668 -84.986369 
L 212.688597 -78.689906 
L 209.974525 -72.804446 
L 207.260454 -67.372104 
L 204.546383 -62.42451 
L 201.832311 -57.980798 
L 199.11824 -54.046842 
L 196.404169 -50.615611 
L 193.690097 -47.6684 
L 190.976026 -45.176678 
L 188.261955 -43.104275 
L 185.547884 -41.409704 
L 182.833812 -40.048429 
L 180.119741 -38.974964 
L 177.40567 -38.144716 
L 174.691598 -37.515491 
L 171.977527 -37.048653 
L 169.263456 -36.709919 
L 166.549384 -36.46978 
L 163.835313 -36.303608 
L 161.121242 -36.191472 
L 158.40717 -36.117742 
L 155.693099 -36.070547 
L 152.979028 -36.041157 
L 150.264956 -36.023365 
z
" style="stroke: #ffc759"/>
    </defs>
    <g clip-path="url(#p49662f49ce)">
     <use xlink:href="#md707d518a5" x="0" y="288" style="fill: #ffc759; fill-opacity: 0.25; stroke: #ffc759"/>
    </g>
   </g>
   <g id="PolyCollection_2">
    <defs>
     <path id="md43227f228" d="M 138.436364 -36.009389 
L 138.436364 -36 
L 141.495295 -36 
L 144.554226 -36 
L 147.613157 -36 
L 150.672088 -36 
L 153.731019 -36 
L 156.78995 -36 
L 159.848881 -36 
L 162.907812 -36 
L 165.966743 -36 
L 169.025674 -36 
L 172.084605 -36 
L 175.143536 -36 
L 178.202467 -36 
L 181.261398 -36 
L 184.320329 -36 
L 187.37926 -36 
L 190.438191 -36 
L 193.497122 -36 
L 196.556053 -36 
L 199.614984 -36 
L 202.673915 -36 
L 205.732846 -36 
L 208.791777 -36 
L 211.850708 -36 
L 214.909639 -36 
L 217.96857 -36 
L 221.027501 -36 
L 224.086432 -36 
L 227.145363 -36 
L 230.204294 -36 
L 233.263225 -36 
L 236.322156 -36 
L 239.381087 -36 
L 242.440018 -36 
L 245.498949 -36 
L 248.55788 -36 
L 251.616811 -36 
L 254.675742 -36 
L 257.734673 -36 
L 260.793604 -36 
L 263.852535 -36 
L 266.911466 -36 
L 269.970397 -36 
L 273.029328 -36 
L 276.088259 -36 
L 279.14719 -36 
L 282.206122 -36 
L 285.265053 -36 
L 288.323984 -36 
L 291.382915 -36 
L 294.441846 -36 
L 297.500777 -36 
L 300.559708 -36 
L 303.618639 -36 
L 306.67757 -36 
L 309.736501 -36 
L 312.795432 -36 
L 315.854363 -36 
L 318.913294 -36 
L 321.972225 -36 
L 325.031156 -36 
L 328.090087 -36 
L 331.149018 -36 
L 334.207949 -36 
L 337.26688 -36 
L 340.325811 -36 
L 343.384742 -36 
L 346.443673 -36 
L 349.502604 -36 
L 352.561535 -36 
L 355.620466 -36 
L 358.679397 -36 
L 361.738328 -36 
L 364.797259 -36 
L 367.85619 -36 
L 370.915121 -36 
L 373.974052 -36 
L 377.032983 -36 
L 380.091914 -36 
L 383.150845 -36 
L 386.209776 -36 
L 389.268707 -36 
L 392.327638 -36 
L 395.386569 -36 
L 398.4455 -36 
L 401.504431 -36 
L 404.563362 -36 
L 407.622293 -36 
L 410.681224 -36 
L 413.740155 -36 
L 416.799086 -36 
L 419.858017 -36 
L 422.916948 -36 
L 425.975879 -36 
L 429.03481 -36 
L 432.093741 -36 
L 435.152672 -36 
L 438.211603 -36 
L 441.270534 -36 
L 444.329466 -36 
L 447.388397 -36 
L 450.447328 -36 
L 453.506259 -36 
L 456.56519 -36 
L 459.624121 -36 
L 462.683052 -36 
L 465.741983 -36 
L 468.800914 -36 
L 471.859845 -36 
L 474.918776 -36 
L 477.977707 -36 
L 481.036638 -36 
L 484.095569 -36 
L 487.1545 -36 
L 490.213431 -36 
L 493.272362 -36 
L 496.331293 -36 
L 499.390224 -36 
L 502.449155 -36 
L 505.508086 -36 
L 508.567017 -36 
L 511.625948 -36 
L 514.684879 -36 
L 517.74381 -36 
L 520.802741 -36 
L 523.861672 -36 
L 526.920603 -36 
L 529.979534 -36 
L 533.038465 -36 
L 536.097396 -36 
L 539.156327 -36 
L 542.215258 -36 
L 545.274189 -36 
L 548.33312 -36 
L 551.392051 -36 
L 554.450982 -36 
L 557.509913 -36 
L 560.568844 -36 
L 563.627775 -36 
L 566.686706 -36 
L 569.745637 -36 
L 572.804568 -36 
L 575.863499 -36 
L 578.92243 -36 
L 581.981361 -36 
L 585.040292 -36 
L 588.099223 -36 
L 591.158154 -36 
L 594.217085 -36 
L 597.276016 -36 
L 600.334947 -36 
L 603.393878 -36 
L 606.45281 -36 
L 609.511741 -36 
L 612.570672 -36 
L 615.629603 -36 
L 618.688534 -36 
L 621.747465 -36 
L 624.806396 -36 
L 627.865327 -36 
L 630.924258 -36 
L 633.983189 -36 
L 637.04212 -36 
L 640.101051 -36 
L 643.159982 -36 
L 646.218913 -36 
L 649.277844 -36 
L 652.336775 -36 
L 655.395706 -36 
L 658.454637 -36 
L 661.513568 -36 
L 664.572499 -36 
L 667.63143 -36 
L 670.690361 -36 
L 673.749292 -36 
L 676.808223 -36 
L 679.867154 -36 
L 682.926085 -36 
L 685.985016 -36 
L 689.043947 -36 
L 692.102878 -36 
L 695.161809 -36 
L 698.22074 -36 
L 701.279671 -36 
L 704.338602 -36 
L 707.397533 -36 
L 710.456464 -36 
L 713.515395 -36 
L 716.574326 -36 
L 719.633257 -36 
L 722.692188 -36 
L 725.751119 -36 
L 728.81005 -36 
L 731.868981 -36 
L 734.927912 -36 
L 737.986843 -36 
L 741.045774 -36 
L 744.104705 -36 
L 747.163636 -36 
L 747.163636 -36.009001 
L 747.163636 -36.009001 
L 744.104705 -36.014501 
L 741.045774 -36.022789 
L 737.986843 -36.034949 
L 734.927912 -36.052314 
L 731.868981 -36.076454 
L 728.81005 -36.10913 
L 725.751119 -36.152208 
L 722.692188 -36.207537 
L 719.633257 -36.276809 
L 716.574326 -36.361404 
L 713.515395 -36.462258 
L 710.456464 -36.579769 
L 707.397533 -36.713766 
L 704.338602 -36.863551 
L 701.279671 -37.028005 
L 698.22074 -37.205729 
L 695.161809 -37.395203 
L 692.102878 -37.594899 
L 689.043947 -37.803333 
L 685.985016 -38.019031 
L 682.926085 -38.240415 
L 679.867154 -38.465648 
L 676.808223 -38.692484 
L 673.749292 -38.918179 
L 670.690361 -39.139529 
L 667.63143 -39.353046 
L 664.572499 -39.555284 
L 661.513568 -39.743276 
L 658.454637 -39.915029 
L 655.395706 -40.069979 
L 652.336775 -40.209345 
L 649.277844 -40.336311 
L 646.218913 -40.455972 
L 643.159982 -40.575052 
L 640.101051 -40.701398 
L 637.04212 -40.843311 
L 633.983189 -41.008765 
L 630.924258 -41.204634 
L 627.865327 -41.435975 
L 624.806396 -41.705492 
L 621.747465 -42.01321 
L 618.688534 -42.356419 
L 615.629603 -42.72989 
L 612.570672 -43.126341 
L 609.511741 -43.537109 
L 606.45281 -43.952967 
L 603.393878 -44.365004 
L 600.334947 -44.765506 
L 597.276016 -45.148785 
L 594.217085 -45.511888 
L 591.158154 -45.85518 
L 588.099223 -46.182761 
L 585.040292 -46.502698 
L 581.981361 -46.827037 
L 578.92243 -47.171554 
L 575.863499 -47.555192 
L 572.804568 -47.999144 
L 569.745637 -48.525559 
L 566.686706 -49.155912 
L 563.627775 -49.909137 
L 560.568844 -50.799689 
L 557.509913 -51.835766 
L 554.450982 -53.01795 
L 551.392051 -54.338495 
L 548.33312 -55.781435 
L 545.274189 -57.323568 
L 542.215258 -58.936248 
L 539.156327 -60.587784 
L 536.097396 -62.246149 
L 533.038465 -63.88168 
L 529.979534 -65.469424 
L 526.920603 -66.990904 
L 523.861672 -68.435138 
L 520.802741 -69.798888 
L 517.74381 -71.086192 
L 514.684879 -72.30732 
L 511.625948 -73.47731 
L 508.567017 -74.614264 
L 505.508086 -75.73759 
L 502.449155 -76.866348 
L 499.390224 -78.01789 
L 496.331293 -79.20694 
L 493.272362 -80.445259 
L 490.213431 -81.741944 
L 487.1545 -83.10433 
L 484.095569 -84.539316 
L 481.036638 -86.054826 
L 477.977707 -87.661043 
L 474.918776 -89.371014 
L 471.859845 -91.200376 
L 468.800914 -93.166049 
L 465.741983 -95.28403 
L 462.683052 -97.56661 
L 459.624121 -100.019529 
L 456.56519 -102.639644 
L 453.506259 -105.413668 
L 450.447328 -108.318335 
L 447.388397 -111.322143 
L 444.329466 -114.38849 
L 441.270534 -117.47979 
L 438.211603 -120.561948 
L 435.152672 -123.608478 
L 432.093741 -126.603638 
L 429.03481 -129.544096 
L 425.975879 -132.438907 
L 422.916948 -135.307866 
L 419.858017 -138.178575 
L 416.799086 -141.082711 
L 413.740155 -144.052061 
L 410.681224 -147.114851 
L 407.622293 -150.2927 
L 404.563362 -153.598383 
L 401.504431 -157.034328 
L 398.4455 -160.591716 
L 395.386569 -164.249974 
L 392.327638 -167.976535 
L 389.268707 -171.726911 
L 386.209776 -175.445248 
L 383.150845 -179.065654 
L 380.091914 -182.514611 
L 377.032983 -185.714631 
L 373.974052 -188.589091 
L 370.915121 -191.067886 
L 367.85619 -193.093273 
L 364.797259 -194.625078 
L 361.738328 -195.644443 
L 358.679397 -196.155445 
L 355.620466 -196.184231 
L 352.561535 -195.775718 
L 349.502604 -194.988294 
L 346.443673 -193.887307 
L 343.384742 -192.53823 
L 340.325811 -191.000451 
L 337.26688 -189.322423 
L 334.207949 -187.538672 
L 331.149018 -185.668834 
L 328.090087 -183.718631 
L 325.031156 -181.682449 
L 321.972225 -179.547028 
L 318.913294 -177.295709 
L 315.854363 -174.91266 
L 312.795432 -172.386524 
L 309.736501 -169.713028 
L 306.67757 -166.896208 
L 303.618639 -163.948111 
L 300.559708 -160.887023 
L 297.500777 -157.734535 
L 294.441846 -154.51196 
L 291.382915 -151.236712 
L 288.323984 -147.919325 
L 285.265053 -144.561627 
L 282.206122 -141.156412 
L 279.14719 -137.68867 
L 276.088259 -134.138155 
L 273.029328 -130.482861 
L 269.970397 -126.702872 
L 266.911466 -122.784003 
L 263.852535 -118.720765 
L 260.793604 -114.518301 
L 257.734673 -110.193105 
L 254.675742 -105.772506 
L 251.616811 -101.293022 
L 248.55788 -96.797783 
L 245.498949 -92.333329 
L 242.440018 -87.946123 
L 239.381087 -83.679162 
L 236.322156 -79.569065 
L 233.263225 -75.643986 
L 230.204294 -71.922586 
L 227.145363 -68.414167 
L 224.086432 -65.119897 
L 221.027501 -62.034872 
L 217.96857 -59.150652 
L 214.909639 -56.457813 
L 211.850708 -53.9481 
L 208.791777 -51.615856 
L 205.732846 -49.458564 
L 202.673915 -47.476522 
L 199.614984 -45.671826 
L 196.556053 -44.046945 
L 193.497122 -42.603208 
L 190.438191 -41.339516 
L 187.37926 -40.251465 
L 184.320329 -39.331005 
L 181.261398 -38.566618 
L 178.202467 -37.943926 
L 175.143536 -37.44658 
L 172.084605 -37.057265 
L 169.025674 -36.758673 
L 165.966743 -36.534341 
L 162.907812 -36.369273 
L 159.848881 -36.250334 
L 156.78995 -36.166423 
L 153.731019 -36.10847 
L 150.672088 -36.069293 
L 147.613157 -36.043374 
L 144.554226 -36.026596 
L 141.495295 -36.015971 
L 138.436364 -36.009389 
z
" style="stroke: #ff7b9c"/>
    </defs>
    <g clip-path="url(#p49662f49ce)">
     <use xlink:href="#md43227f228" x="0" y="288" style="fill: #ff7b9c; fill-opacity: 0.25; stroke: #ff7b9c"/>
    </g>
   </g>
   <g id="patch_3">
    <path d="M 108 252 
L 108 34.56 
" style="fill: none; stroke: #cccccc; stroke-width: 1.25; stroke-linejoin: miter; stroke-linecap: square"/>
   </g>
   <g id="patch_4">
    <path d="M 777.6 252 
L 777.6 34.56 
" style="fill: none; stroke: #cccccc; stroke-width: 1.25; stroke-linejoin: miter; stroke-linecap: square"/>
   </g>
   <g id="patch_5">
    <path d="M 108 252 
L 777.6 252 
" style="fill: none; stroke: #cccccc; stroke-width: 1.25; stroke-linejoin: miter; stroke-linecap: square"/>
   </g>
   <g id="patch_6">
    <path d="M 108 34.56 
L 777.6 34.56 
" style="fill: none; stroke: #cccccc; stroke-width: 1.25; stroke-linejoin: miter; stroke-linecap: square"/>
   </g>
   <g id="text_10">
    <!-- Age At The Movie Release -->
    <g style="fill: #262626" transform="translate(364.854375 28.56)scale(0.12 -0.12)">
     <defs>
      <path id="DejaVuSans-41" d="M 2188 4044 
L 1331 1722 
L 3047 1722 
L 2188 4044 
z
M 1831 4666 
L 2547 4666 
L 4325 0 
L 3669 0 
L 3244 1197 
L 1141 1197 
L 716 0 
L 50 0 
L 1831 4666 
z
" transform="scale(0.015625)"/>
      <path id="DejaVuSans-67" d="M 2906 1791 
Q 2906 2416 2648 2759 
Q 2391 3103 1925 3103 
Q 1463 3103 1205 2759 
Q 947 2416 947 1791 
Q 947 1169 1205 825 
Q 1463 481 1925 481 
Q 2391 481 2648 825 
Q 2906 1169 2906 1791 
z
M 3481 434 
Q 3481 -459 3084 -895 
Q 2688 -1331 1869 -1331 
Q 1566 -1331 1297 -1286 
Q 1028 -1241 775 -1147 
L 775 -588 
Q 1028 -725 1275 -790 
Q 1522 -856 1778 -856 
Q 2344 -856 2625 -561 
Q 2906 -266 2906 331 
L 2906 616 
Q 2728 306 2450 153 
Q 2172 0 1784 0 
Q 1141 0 747 490 
Q 353 981 353 1791 
Q 353 2603 747 3093 
Q 1141 3584 1784 3584 
Q 2172 3584 2450 3431 
Q 2728 3278 2906 2969 
L 2906 3500 
L 3481 3500 
L 3481 434 
z
" transform="scale(0.015625)"/>
      <path id="DejaVuSans-65" d="M 3597 1894 
L 3597 1613 
L 953 1613 
Q 991 1019 1311 708 
Q 1631 397 2203 397 
Q 2534 397 2845 478 
Q 3156 559 3463 722 
L 3463 178 
Q 3153 47 2828 -22 
Q 2503 -91 2169 -91 
Q 1331 -91 842 396 
Q 353 884 353 1716 
Q 353 2575 817 3079 
Q 1281 3584 2069 3584 
Q 2775 3584 3186 3129 
Q 3597 2675 3597 1894 
z
M 3022 2063 
Q 3016 2534 2758 2815 
Q 2500 3097 2075 3097 
Q 1594 3097 1305 2825 
Q 1016 2553 972 2059 
L 3022 2063 
z
" transform="scale(0.015625)"/>
      <path id="DejaVuSans-20" transform="scale(0.015625)"/>
      <path id="DejaVuSans-74" d="M 1172 4494 
L 1172 3500 
L 2356 3500 
L 2356 3053 
L 1172 3053 
L 1172 1153 
Q 1172 725 1289 603 
Q 1406 481 1766 481 
L 2356 481 
L 2356 0 
L 1766 0 
Q 1100 0 847 248 
Q 594 497 594 1153 
L 594 3053 
L 172 3053 
L 172 3500 
L 594 3500 
L 594 4494 
L 1172 4494 
z
" transform="scale(0.015625)"/>
      <path id="DejaVuSans-54" d="M -19 4666 
L 3928 4666 
L 3928 4134 
L 2272 4134 
L 2272 0 
L 1638 0 
L 1638 4134 
L -19 4134 
L -19 4666 
z
" transform="scale(0.015625)"/>
      <path id="DejaVuSans-68" d="M 3513 2113 
L 3513 0 
L 2938 0 
L 2938 2094 
Q 2938 2591 2744 2837 
Q 2550 3084 2163 3084 
Q 1697 3084 1428 2787 
Q 1159 2491 1159 1978 
L 1159 0 
L 581 0 
L 581 4863 
L 1159 4863 
L 1159 2956 
Q 1366 3272 1645 3428 
Q 1925 3584 2291 3584 
Q 2894 3584 3203 3211 
Q 3513 2838 3513 2113 
z
" transform="scale(0.015625)"/>
      <path id="DejaVuSans-4d" d="M 628 4666 
L 1569 4666 
L 2759 1491 
L 3956 4666 
L 4897 4666 
L 4897 0 
L 4281 0 
L 4281 4097 
L 3078 897 
L 2444 897 
L 1241 4097 
L 1241 0 
L 628 0 
L 628 4666 
z
" transform="scale(0.015625)"/>
      <path id="DejaVuSans-6f" d="M 1959 3097 
Q 1497 3097 1228 2736 
Q 959 2375 959 1747 
Q 959 1119 1226 758 
Q 1494 397 1959 397 
Q 2419 397 2687 759 
Q 2956 1122 2956 1747 
Q 2956 2369 2687 2733 
Q 2419 3097 1959 3097 
z
M 1959 3584 
Q 2709 3584 3137 3096 
Q 3566 2609 3566 1747 
Q 3566 888 3137 398 
Q 2709 -91 1959 -91 
Q 1206 -91 779 398 
Q 353 888 353 1747 
Q 353 2609 779 3096 
Q 1206 3584 1959 3584 
z
" transform="scale(0.015625)"/>
      <path id="DejaVuSans-76" d="M 191 3500 
L 800 3500 
L 1894 563 
L 2988 3500 
L 3597 3500 
L 2284 0 
L 1503 0 
L 191 3500 
z
" transform="scale(0.015625)"/>
      <path id="DejaVuSans-69" d="M 603 3500 
L 1178 3500 
L 1178 0 
L 603 0 
L 603 3500 
z
M 603 4863 
L 1178 4863 
L 1178 4134 
L 603 4134 
L 603 4863 
z
" transform="scale(0.015625)"/>
      <path id="DejaVuSans-52" d="M 2841 2188 
Q 3044 2119 3236 1894 
Q 3428 1669 3622 1275 
L 4263 0 
L 3584 0 
L 2988 1197 
Q 2756 1666 2539 1819 
Q 2322 1972 1947 1972 
L 1259 1972 
L 1259 0 
L 628 0 
L 628 4666 
L 2053 4666 
Q 2853 4666 3247 4331 
Q 3641 3997 3641 3322 
Q 3641 2881 3436 2590 
Q 3231 2300 2841 2188 
z
M 1259 4147 
L 1259 2491 
L 2053 2491 
Q 2509 2491 2742 2702 
Q 2975 2913 2975 3322 
Q 2975 3731 2742 3939 
Q 2509 4147 2053 4147 
L 1259 4147 
z
" transform="scale(0.015625)"/>
      <path id="DejaVuSans-6c" d="M 603 4863 
L 1178 4863 
L 1178 0 
L 603 0 
L 603 4863 
z
" transform="scale(0.015625)"/>
      <path id="DejaVuSans-61" d="M 2194 1759 
Q 1497 1759 1228 1600 
Q 959 1441 959 1056 
Q 959 750 1161 570 
Q 1363 391 1709 391 
Q 2188 391 2477 730 
Q 2766 1069 2766 1631 
L 2766 1759 
L 2194 1759 
z
M 3341 1997 
L 3341 0 
L 2766 0 
L 2766 531 
Q 2569 213 2275 61 
Q 1981 -91 1556 -91 
Q 1019 -91 701 211 
Q 384 513 384 1019 
Q 384 1609 779 1909 
Q 1175 2209 1959 2209 
L 2766 2209 
L 2766 2266 
Q 2766 2663 2505 2880 
Q 2244 3097 1772 3097 
Q 1472 3097 1187 3025 
Q 903 2953 641 2809 
L 641 3341 
Q 956 3463 1253 3523 
Q 1550 3584 1831 3584 
Q 2591 3584 2966 3190 
Q 3341 2797 3341 1997 
z
" transform="scale(0.015625)"/>
      <path id="DejaVuSans-73" d="M 2834 3397 
L 2834 2853 
Q 2591 2978 2328 3040 
Q 2066 3103 1784 3103 
Q 1356 3103 1142 2972 
Q 928 2841 928 2578 
Q 928 2378 1081 2264 
Q 1234 2150 1697 2047 
L 1894 2003 
Q 2506 1872 2764 1633 
Q 3022 1394 3022 966 
Q 3022 478 2636 193 
Q 2250 -91 1575 -91 
Q 1294 -91 989 -36 
Q 684 19 347 128 
L 347 722 
Q 666 556 975 473 
Q 1284 391 1588 391 
Q 1994 391 2212 530 
Q 2431 669 2431 922 
Q 2431 1156 2273 1281 
Q 2116 1406 1581 1522 
L 1381 1569 
Q 847 1681 609 1914 
Q 372 2147 372 2553 
Q 372 3047 722 3315 
Q 1072 3584 1716 3584 
Q 2034 3584 2315 3537 
Q 2597 3491 2834 3397 
z
" transform="scale(0.015625)"/>
     </defs>
     <use xlink:href="#DejaVuSans-41"/>
     <use xlink:href="#DejaVuSans-67" x="68.408203"/>
     <use xlink:href="#DejaVuSans-65" x="131.884766"/>
     <use xlink:href="#DejaVuSans-20" x="193.408203"/>
     <use xlink:href="#DejaVuSans-41" x="225.195312"/>
     <use xlink:href="#DejaVuSans-74" x="291.853516"/>
     <use xlink:href="#DejaVuSans-20" x="331.0625"/>
     <use xlink:href="#DejaVuSans-54" x="362.849609"/>
     <use xlink:href="#DejaVuSans-68" x="423.933594"/>
     <use xlink:href="#DejaVuSans-65" x="487.3125"/>
     <use xlink:href="#DejaVuSans-20" x="548.835938"/>
     <use xlink:href="#DejaVuSans-4d" x="580.623047"/>
     <use xlink:href="#DejaVuSans-6f" x="666.902344"/>
     <use xlink:href="#DejaVuSans-76" x="728.083984"/>
     <use xlink:href="#DejaVuSans-69" x="787.263672"/>
     <use xlink:href="#DejaVuSans-65" x="815.046875"/>
     <use xlink:href="#DejaVuSans-20" x="876.570312"/>
     <use xlink:href="#DejaVuSans-52" x="908.357422"/>
     <use xlink:href="#DejaVuSans-65" x="973.339844"/>
     <use xlink:href="#DejaVuSans-6c" x="1034.863281"/>
     <use xlink:href="#DejaVuSans-65" x="1062.646484"/>
     <use xlink:href="#DejaVuSans-61" x="1124.169922"/>
     <use xlink:href="#DejaVuSans-73" x="1185.449219"/>
     <use xlink:href="#DejaVuSans-65" x="1237.548828"/>
    </g>
   </g>
   <g id="legend_1">
    <g id="patch_7">
     <path d="M 694.503594 75.651875 
L 769.9 75.651875 
Q 772.1 75.651875 772.1 73.451875 
L 772.1 42.26 
Q 772.1 40.06 769.9 40.06 
L 694.503594 40.06 
Q 692.303594 40.06 692.303594 42.26 
L 692.303594 73.451875 
Q 692.303594 75.651875 694.503594 75.651875 
z
" style="fill: #fafafa; opacity: 0.8; stroke: #cccccc; stroke-linejoin: miter"/>
    </g>
    <g id="patch_8">
     <path d="M 696.703594 52.818281 
L 718.703594 52.818281 
L 718.703594 45.118281 
L 696.703594 45.118281 
z
" style="fill: #ffc759; fill-opacity: 0.25; stroke: #ffc759; stroke-linejoin: miter"/>
    </g>
    <g id="text_11">
     <!-- Actress -->
     <g style="fill: #262626" transform="translate(727.503594 52.818281)scale(0.11 -0.11)">
      <defs>
       <path id="DejaVuSans-63" d="M 3122 3366 
L 3122 2828 
Q 2878 2963 2633 3030 
Q 2388 3097 2138 3097 
Q 1578 3097 1268 2742 
Q 959 2388 959 1747 
Q 959 1106 1268 751 
Q 1578 397 2138 397 
Q 2388 397 2633 464 
Q 2878 531 3122 666 
L 3122 134 
Q 2881 22 2623 -34 
Q 2366 -91 2075 -91 
Q 1284 -91 818 406 
Q 353 903 353 1747 
Q 353 2603 823 3093 
Q 1294 3584 2113 3584 
Q 2378 3584 2631 3529 
Q 2884 3475 3122 3366 
z
" transform="scale(0.015625)"/>
       <path id="DejaVuSans-72" d="M 2631 2963 
Q 2534 3019 2420 3045 
Q 2306 3072 2169 3072 
Q 1681 3072 1420 2755 
Q 1159 2438 1159 1844 
L 1159 0 
L 581 0 
L 581 3500 
L 1159 3500 
L 1159 2956 
Q 1341 3275 1631 3429 
Q 1922 3584 2338 3584 
Q 2397 3584 2469 3576 
Q 2541 3569 2628 3553 
L 2631 2963 
z
" transform="scale(0.015625)"/>
      </defs>
      <use xlink:href="#DejaVuSans-41"/>
      <use xlink:href="#DejaVuSans-63" x="66.658203"/>
      <use xlink:href="#DejaVuSans-74" x="121.638672"/>
      <use xlink:href="#DejaVuSans-72" x="160.847656"/>
      <use xlink:href="#DejaVuSans-65" x="199.710938"/>
      <use xlink:href="#DejaVuSans-73" x="261.234375"/>
      <use xlink:href="#DejaVuSans-73" x="313.333984"/>
     </g>
    </g>
    <g id="patch_9">
     <path d="M 696.703594 68.964219 
L 718.703594 68.964219 
L 718.703594 61.264219 
L 696.703594 61.264219 
z
" style="fill: #ff7b9c; fill-opacity: 0.25; stroke: #ff7b9c; stroke-linejoin: miter"/>
    </g>
    <g id="text_12">
     <!-- Actor -->
     <g style="fill: #262626" transform="translate(727.503594 68.964219)scale(0.11 -0.11)">
      <use xlink:href="#DejaVuSans-41"/>
      <use xlink:href="#DejaVuSans-63" x="66.658203"/>
      <use xlink:href="#DejaVuSans-74" x="121.638672"/>
      <use xlink:href="#DejaVuSans-6f" x="160.847656"/>
      <use xlink:href="#DejaVuSans-72" x="222.029297"/>
     </g>
    </g>
   </g>
  </g>
 </g>
 <defs>
  <clipPath id="p49662f49ce">
   <rect x="108" y="34.56" width="669.6" height="217.44"/>
  </clipPath>
 </defs>
</svg>
